<svg fill="#FFFFFF" xmlns="http://www.w3.org/2000/svg"  viewBox="0 0 24 24" width="48px" height="48px"><path d="M 11.984375 0.97070312 A 1.0001 1.0001 0 0 0 11.292969 1.2636719 L 2.2929688 10.263672 A 1.0001 1.0001 0 0 0 2 10.970703 L 2 21 A 1.0001 1.0001 0 0 0 3 22 L 7 22 L 17 22 L 21 22 A 1.0001 1.0001 0 0 0 22 21 L 22 10.970703 A 1.0001 1.0001 0 0 0 21.707031 10.263672 L 12.707031 1.2636719 A 1.0001 1.0001 0 0 0 11.984375 0.97070312 z M 12 3.3847656 L 13.414062 4.7988281 L 4 14.212891 L 4 11.384766 L 12 3.3847656 z M 14.828125 6.2148438 L 20 11.384766 L 20 20 L 18 20 L 18 12.628906 A 1.0001 1.0001 0 0 0 17.707031 11.919922 L 13.414062 7.6289062 L 14.828125 6.2148438 z M 12 9.0429688 L 16 13.042969 L 16 16 L 8 16 L 8 13.042969 L 12 9.0429688 z M 6 15.042969 L 6 20 L 4 20 L 4 17.042969 L 6 15.042969 z M 8 18 L 16 18 L 16 20 L 8 20 L 8 18 z"/></svg>